PathFileType	4	(X/Y/Z)	./resultDataOpenSim/trcMotMarkerGrf/sub09/qtm-04-06.trc
DataRate	CameraRate	NumFrames	NumMarkers	Units	OrigDataRate	OrigDataStartFrame	OrigNumFrames
250.000000	250.000000	12	24	m	250.000000	254	506
Frame#	Time	L.Toe.Tip			R.Toe.Tip			L.Ankle.Lat			R.Ankle.Lat			L.Ankle.Med			R.Ankle.Med			L.Heel			R.Heel			L.Knee.Lat			R.Knee.Lat			L.Knee.Med			R.Knee.Med			L.Thigh.Upper			R.Thigh.Upper			L.ASIS			R.ASIS			V.Sacral			L.Acromium			R.Acromium			C7			L.Elbow			R.Elbow			L.Wrist.Lat			R.Wrist.Lat
		X1	Y1	Z1	X2	Y2	Z2	X3	Y3	Z3	X4	Y4	Z4	X5	Y5	Z5	X6	Y6	Z6	X7	Y7	Z7	X8	Y8	Z8	X9	Y9	Z9	X10	Y10	Z10	X11	Y11	Z11	X12	Y12	Z12	X13	Y13	Z13	X14	Y14	Z14	X15	Y15	Z15	X16	Y16	Z16	X17	Y17	Z17	X18	Y18	Z18	X19	Y19	Z19	X20	Y20	Z20	X21	Y21	Z21	X22	Y22	Z22	X23	Y23	Z23	X24	Y24	Z24

254	1.012	0.23129071	-0.033728008	0.0080367859	0.52504392	0.095935766	0.12760077	0.084849407	0.015254427	-0.031162891	0.38161987	0.12046802	0.1482207	0.11074767	0.032424291	0.062929035	0.40438794	0.15303597	0.055712181	0.013068936	-0.0093870191	0.014774196	0.31472907	0.10013531	0.094085912	0.19024672	0.41756571	-0.09082659	0.53075895	0.54071061	0.18957538	0.19434351	0.41867807	0.035604431	0.53063136	0.52913506	0.063388833	0.24726778	0.83837306	-0.14430649	0.26804463	0.84894098	0.22687233	0.34507243	0.91599057	-0.087099737	0.34315249	0.92870106	0.15182338	0.18136334	0.98581644	0.033015966	0.37661428	1.3687916	-0.12993692	0.34209323	1.3832851	0.19728127	0.29369237	1.4305988	0.025518401	0.26016554	1.0104289	-0.20605724	0.15959484	1.0706348	0.27687014	0.49907913	0.8786182	-0.17824483	0.24565918	0.81563441	0.31716877
255	1.016	0.23140459	-0.03369407	0.0078078089	0.54559795	0.095645864	0.12728511	0.084832431	0.015817136	-0.030742348	0.40094549	0.1166144	0.14754627	0.1111845	0.032933642	0.063196475	0.42349997	0.14985368	0.055194966	0.013218728	-0.0086282624	0.01543094	0.33517308	0.094633066	0.09306999	0.19088621	0.41802542	-0.090793493	0.53814142	0.54176614	0.18952982	0.19509539	0.41890432	0.035867526	0.53849847	0.52997213	0.063593502	0.25219189	0.83809916	-0.14396992	0.27414666	0.84859404	0.22719658	0.35111616	0.91546608	-0.086993517	0.34923206	0.92816783	0.151789	0.18727192	0.98541049	0.033366073	0.38258937	1.3683349	-0.12986292	0.34862713	1.3827728	0.19737507	0.29991752	1.4300684	0.025816359	0.26749383	1.0092992	-0.20563106	0.16539329	1.0708365	0.27715699	0.50802033	0.88044593	-0.1771587	0.25047092	0.81567198	0.31843244
256	1.02	0.23153	-0.033671066	0.0075607862	0.56599678	0.095456079	0.12719601	0.084804726	0.016386585	-0.030295479	0.42033061	0.11294969	0.14691672	0.11162521	0.033449919	0.063456651	0.44274767	0.1467808	0.054662595	0.013384338	-0.007843484	0.016138173	0.35560356	0.089362424	0.091990675	0.19157691	0.41847603	-0.090784066	0.54538706	0.5426756	0.18950808	0.1957749	0.41933275	0.035920063	0.54617329	0.53060107	0.063877275	0.25718578	0.83777311	-0.14367115	0.28021512	0.84818616	0.22753836	0.35690604	0.91479074	-0.087059564	0.35532658	0.92756264	0.15177275	0.19318834	0.98492498	0.033649242	0.38858681	1.3678184	-0.12976717	0.3551577	1.3822032	0.19746384	0.30614007	1.4294925	0.026130395	0.2748197	1.0081385	-0.20518838	0.17122004	1.0709658	0.27744956	0.51690394	0.88221588	-0.17607807	0.25534681	0.81563604	0.31966741
257	1.024	0.23160412	-0.033666039	0.0073917151	0.58627289	0.095378157	0.12732524	0.084775157	0.016965032	-0.029849923	0.43983019	0.10950006	0.14630417	0.11207272	0.033978076	0.06371686	0.46211117	0.14383738	0.05411504	0.013560776	-0.0070309101	0.016877172	0.37604767	0.084342339	0.09086026	0.19232104	0.41890005	-0.090813678	0.55250908	0.54343697	0.18952436	0.19642738	0.41992935	0.035884283	0.55366536	0.53101716	0.064227968	0.26223206	0.83739098	-0.14340695	0.28623742	0.84771222	0.22788698	0.3624636	0.91395141	-0.087279342	0.36144036	0.92688303	0.15177501	0.19910684	0.98435868	0.033840272	0.39460807	1.3672441	-0.12965533	0.3616853	1.3815743	0.19754844	0.31238525	1.4288691	0.026378662	0.2821433	1.0069458	-0.20473183	0.17711027	1.0710163	0.27775657	0.52573664	0.8839238	-0.1749995	0.26026914	0.8155247	0.32086846
258	1.028	0.23162533	-0.033672878	0.0072977968	0.60647858	0.095418369	0.1276321	0.084751114	0.017561604	-0.029433116	0.45940686	0.10628375	0.145686	0.11253583	0.034520153	0.0639865	0.48156674	0.14104971	0.05355735	0.013737158	-0.0061931587	0.017614328	0.39659746	0.07957569	0.089680179	0.19314597	0.41929615	-0.09087147	0.5595224	0.54404887	0.18959515	0.1973235	0.42045885	0.035826485	0.56104548	0.53123047	0.06459311	0.26731152	0.83694446	-0.14316006	0.29222359	0.84717934	0.22824321	0.36797132	0.91300986	-0.087506589	0.36757247	0.92612507	0.1517965	0.20504854	0.98372214	0.033984061	0.40064405	1.3666174	-0.12954518	0.36822759	1.3808865	0.19763609	0.31868874	1.4281818	0.026481181	0.28946591	1.0057195	-0.20426426	0.1831326	1.0709697	0.27809793	0.53452302	0.88556322	-0.17392086	0.26523292	0.81533863	0.32203497
259	1.032	0.23162185	-0.033684853	0.0072359582	0.6266658	0.095591983	0.12806621	0.084734088	0.018185923	-0.029042118	0.47901793	0.10329626	0.14504984	0.11301423	0.035069214	0.064259242	0.50109391	0.13844567	0.052989012	0.013909253	-0.0053324627	0.01831677	0.41731853	0.075046147	0.088440256	0.19407414	0.41966256	-0.090942139	0.566445	0.54451112	0.18974027	0.19860779	0.42082558	0.035720843	0.56835559	0.53125986	0.064950331	0.27240734	0.83642559	-0.14291669	0.29819869	0.84659626	0.22861679	0.37356445	0.91202602	-0.087630302	0.37372463	0.92529066	0.15183628	0.21105741	0.98303328	0.034181179	0.40669136	1.3659434	-0.12944738	0.37478923	1.3801423	0.19773098	0.32505946	1.4274107	0.026444437	0.29678987	1.0044586	-0.20379077	0.18931923	1.0708134	0.27848596	0.54325819	0.88712792	-0.1728448	0.27024184	0.81507765	0.32316809
260	1.036	0.23161533	-0.033699937	0.0071783288	0.64685553	0.095922695	0.12858894	0.084723636	0.01883438	-0.028645392	0.49864077	0.10050859	0.14439401	0.11349791	0.035614783	0.06451205	0.52066113	0.13604998	0.05241133	0.014081228	-0.0044492348	0.018959713	0.43822415	0.070736305	0.087115358	0.19511852	0.41999992	-0.091017082	0.57329585	0.54482377	0.18997984	0.200101	0.42115251	0.035560883	0.57560197	0.5311218	0.065312364	0.27749977	0.83583343	-0.14266964	0.30417627	0.84596101	0.22900952	0.3792425	0.91100822	-0.087646068	0.37990393	0.9243879	0.15189186	0.21715107	0.98230113	0.034484508	0.41275698	1.3652245	-0.12935685	0.38135585	1.3793448	0.19783041	0.33146372	1.4265538	0.02637712	0.30412028	1.0031599	-0.20331456	0.19558528	1.0705577	0.27890983	0.55193731	0.8886164	-0.17177134	0.27530213	0.81474066	0.32426781
261	1.04	0.23161449	-0.033718613	0.0071177797	0.66698069	0.096431966	0.12918786	0.084728408	0.019493632	-0.028233022	0.51826846	0.097883556	0.14372234	0.11397848	0.036152656	0.064722204	0.54021478	0.13387544	0.051836754	0.014260311	-0.0035451277	0.01952849	0.45930508	0.066650425	0.085686571	0.19629579	0.42031311	-0.091094562	0.58008467	0.54498222	0.19032196	0.20162242	0.42152573	0.035381012	0.5828158	0.53082951	0.065668488	0.28257776	0.83517683	-0.14241445	0.31014928	0.84526147	0.22940978	0.38494859	0.90993997	-0.087604225	0.38611265	0.92342091	0.15195941	0.22330686	0.98152911	0.03487153	0.4188477	1.3644603	-0.12926551	0.38791894	1.3784946	0.19793157	0.33784818	1.4256323	0.0264243	0.31146374	1.0018181	-0.20283128	0.20175918	1.0702406	0.27935103	0.5605669	0.89003098	-0.17069346	0.28041697	0.81432528	0.32533416
262	1.044	0.23161958	-0.033740172	0.0070565638	0.68690503	0.097124621	0.1298627	0.084768873	0.020155386	-0.027850482	0.53787481	0.095418651	0.14305639	0.114453	0.036685472	0.064879596	0.55969369	0.13192186	0.05127989	0.014453476	-0.0026252456	0.020017369	0.48051506	0.062818155	0.08417757	0.19763008	0.42060667	-0.091174826	0.58679297	0.54496867	0.19074147	0.20322929	0.42187116	0.035212695	0.59009749	0.53040297	0.065925723	0.28764673	0.83446697	-0.14214096	0.31610814	0.84448645	0.22980586	0.39064751	0.90881676	-0.087553943	0.3923449	0.92238593	0.15203341	0.22951324	0.98072396	0.035342235	0.42496358	1.3636472	-0.12917201	0.39448823	1.3775908	0.19803573	0.34417586	1.4246784	0.02667765	0.31882154	1.0004323	-0.20233435	0.20772408	1.069925	0.27981473	0.56915699	0.89137194	-0.16960652	0.2855844	0.81382911	0.32636612
263	1.048	0.23162788	-0.033761984	0.0069974071	0.70654561	0.097985114	0.13057662	0.0848644	0.020817531	-0.027557117	0.5573955	0.093159294	0.1424275	0.11491976	0.037216844	0.064985549	0.5790425	0.13019171	0.050750089	0.014664652	-0.001696501	0.020427479	0.50171905	0.059284773	0.082681017	0.19914426	0.4208814	-0.091255548	0.59336389	0.54474861	0.19117266	0.20503757	0.42209841	0.035069727	0.59755806	0.52987114	0.065953512	0.29271043	0.83371161	-0.14182612	0.32205937	0.84363423	0.23019855	0.39633227	0.90764653	-0.087518968	0.39859603	0.92128071	0.15210667	0.23578179	0.97988792	0.035935964	0.43110335	1.3627795	-0.12907837	0.40107034	1.376633	0.19814461	0.35045821	1.4237144	0.02710026	0.32618639	0.99901112	-0.20182392	0.21351058	1.0696767	0.28032265	0.5777078	0.89263655	-0.16851642	0.2908007	0.81325279	0.32736058
264	1.052	0.23163767	-0.03378174	0.0069410517	0.72592734	0.098990738	0.13124026	0.085020941	0.021478197	-0.027371848	0.57677829	0.091141605	0.14182826	0.11537841	0.0377482	0.065046834	0.59821207	0.1286963	0.050258042	0.014892126	-0.00076414176	0.020763194	0.52271627	0.056095484	0.081328948	0.20085266	0.4211333	-0.091333761	0.5997293	0.54428599	0.19154607	0.20704688	0.42221336	0.034952863	0.60514469	0.52925392	0.065756102	0.29774957	0.83291832	-0.14143248	0.32802641	0.84271274	0.2305964	0.40199881	0.90643704	-0.087502323	0.40486858	0.92011324	0.1521717	0.2420689	0.97901212	0.0365769	0.43727086	1.3618564	-0.12898585	0.40765437	1.3756231	0.19825876	0.35675837	1.4227352	0.027530414	0.33354936	0.99756336	-0.2013051	0.21925362	1.0694964	0.28087303	0.58620937	0.89382294	-0.16743485	0.29606666	0.81260103	0.32831644
265	1.056	0.23165011	-0.033799306	0.0068879623	0.74510873	0.100121	0.13175936	0.085232662	0.022137447	-0.027276523	0.59604736	0.08932381	0.14119665	0.11583198	0.038277813	0.065069644	0.61716946	0.12744126	0.049813866	0.01512992	0.00017524856	0.021018811	0.54335961	0.053274897	0.080204541	0.20276114	0.42135434	-0.091412936	0.60585939	0.54356789	0.19184108	0.20920631	0.42226803	0.034853425	0.61257627	0.52854191	0.06553986	0.30273928	0.83209645	-0.14092743	0.33403584	0.841736	0.23100147	0.40763851	0.90519582	-0.087501844	0.41116834	0.91889833	0.15222302	0.24824722	0.97808531	0.037023878	0.44347382	1.3608847	-0.12889305	0.41423012	1.3745645	0.19838135	0.36314734	1.4217169	0.027795379	0.34090709	0.99608853	-0.20078024	0.22509427	1.0692756	0.28143894	0.59465185	0.89493057	-0.16636917	0.30138854	0.81188001	0.32923798
